<svg width="91" height="23" viewBox="0 0 91 23" fill="none" xmlns="http://www.w3.org/2000/svg">
<path d="M0.996 23C0.492 23 0.24 22.748 0.24 22.244V0.967998C0.24 0.463999 0.492 0.211999 0.996 0.211999C1.392 0.211999 1.692 0.379999 1.896 0.715999L11.004 14.72L10.644 14.756L19.752 0.715999C19.956 0.379999 20.256 0.211999 20.652 0.211999C21.132 0.211999 21.372 0.463999 21.372 0.967998V22.244C21.372 22.748 21.12 23 20.616 23C20.112 23 19.86 22.748 19.86 22.244V2.48L20.292 2.624L11.724 15.8C11.52 16.136 11.22 16.304 10.824 16.304C10.428 16.304 10.128 16.136 9.924 15.8L1.356 2.624L1.752 2.804V22.244C1.752 22.748 1.5 23 0.996 23ZM28.5937 23C28.0897 23 27.8377 22.748 27.8377 22.244V0.967998C27.8377 0.463999 28.0897 0.211999 28.5937 0.211999H42.2737C42.7777 0.211999 43.0297 0.463999 43.0297 0.967998C43.0297 1.472 42.7777 1.724 42.2737 1.724H29.3497V10.688H38.0257C38.5297 10.688 38.7817 10.94 38.7817 11.444C38.7817 11.948 38.5297 12.2 38.0257 12.2H29.3497V21.488H42.2737C42.7777 21.488 43.0297 21.74 43.0297 22.244C43.0297 22.748 42.7777 23 42.2737 23H28.5937ZM48.2812 23C47.7772 23 47.5252 22.748 47.5252 22.244V0.967998C47.5252 0.463999 47.7772 0.211999 48.2812 0.211999C48.5572 0.211999 48.8212 0.355999 49.0732 0.643998L64.5892 20.552H64.2652V0.967998C64.2652 0.463999 64.5172 0.211999 65.0212 0.211999C65.5252 0.211999 65.7772 0.463999 65.7772 0.967998V22.244C65.7772 22.748 65.5252 23 65.0212 23C64.7452 23 64.4812 22.856 64.2292 22.568L48.7132 2.66H49.0372V22.244C49.0372 22.748 48.7852 23 48.2812 23ZM79.368 23C76.812 23 74.952 22.424 73.788 21.272C72.636 20.108 72.06 18.248 72.06 15.692V0.967998C72.06 0.751998 72.132 0.571998 72.276 0.427999C72.42 0.283999 72.6 0.211999 72.816 0.211999C73.032 0.211999 73.212 0.283999 73.356 0.427999C73.5 0.571998 73.572 0.751998 73.572 0.967998V15.692C73.572 17.108 73.758 18.242 74.13 19.094C74.514 19.934 75.126 20.546 75.966 20.93C76.818 21.302 77.952 21.488 79.368 21.488H83.688C85.104 21.488 86.232 21.302 87.072 20.93C87.924 20.546 88.536 19.934 88.908 19.094C89.292 18.242 89.484 17.108 89.484 15.692V0.967998C89.484 0.751998 89.556 0.571998 89.7 0.427999C89.844 0.283999 90.024 0.211999 90.24 0.211999C90.456 0.211999 90.636 0.283999 90.78 0.427999C90.924 0.571998 90.996 0.751998 90.996 0.967998V15.692C90.996 18.248 90.414 20.108 89.25 21.272C88.098 22.424 86.244 23 83.688 23H79.368Z" fill="white"/>
</svg>
