<svg width="313" height="318" viewBox="0 0 313 318" fill="none" xmlns="http://www.w3.org/2000/svg">
<rect x="7.5" y="7.5" width="298" height="303" rx="52.5" stroke="#9AFF6B" stroke-width="15"/>
<path d="M173.317 141.654C168.394 144.72 162.572 146.375 156.591 146.375C148.562 146.375 140.926 143.398 135.348 138.199C129.782 133.01 126.727 126.051 126.727 118.875C126.727 113.517 128.43 108.248 131.667 103.732C134.907 99.2107 139.552 95.6365 145.05 93.5133C150.551 91.3894 156.621 90.8291 162.481 91.9157C168.34 93.0021 173.677 95.6763 177.834 99.5514C181.987 103.423 184.771 108.312 185.895 113.578C187.018 118.841 186.445 124.3 184.231 129.282C182.015 134.269 178.237 138.589 173.317 141.654Z" fill="#9AFF6B" stroke="#9AFF6B" stroke-width="10"/>
<path d="M211.64 226.588C210.966 227.216 209.981 227.625 208.886 227.625H104.295C103.201 227.625 102.216 227.216 101.542 226.588C100.879 225.97 100.58 225.211 100.58 224.5C100.58 210.86 106.389 197.701 116.859 187.941C127.34 178.17 141.627 172.625 156.591 172.625C171.555 172.625 185.842 178.17 196.323 187.941C206.793 197.701 212.602 210.86 212.602 224.5C212.602 225.211 212.303 225.97 211.64 226.588Z" fill="#9AFF6B" stroke="#9AFF6B" stroke-width="10"/>
</svg>
